<svg xmlns="http://www.w3.org/2000/svg" viewBox="0 0 512 512" fill="#ea580c">
  <circle cx="256" cy="256" r="256" fill="#fff"/>
  <path d="M256 96c-44.2 0-80 35.8-80 80v16h-32c-17.7 0-32 14.3-32 32v192c0 17.7 14.3 32 32 32h224c17.7 0 32-14.3 32-32V224c0-17.7-14.3-32-32-32h-32v-16c0-44.2-35.8-80-80-80zm48 96v-16c0-26.5-21.5-48-48-48s-48 21.5-48 48v16h96z" fill="#ea580c"/>
  <rect x="128" y="256" width="256" height="32" rx="8" fill="#ea580c"/>
  <rect x="176" y="320" width="160" height="16" rx="8" fill="#ea580c" opacity="0.7"/>
  <rect x="176" y="368" width="160" height="16" rx="8" fill="#ea580c" opacity="0.7"/>
</svg>
